<mxfile host="Electron" modified="2023-10-04T11:27:19.685Z" agent="5.0 (Windows NT 10.0; Win64; x64) AppleWebKit/537.36 (KHTML, like Gecko) draw.io/20.3.0 Chrome/104.0.5112.114 Electron/20.1.3 Safari/537.36" etag="XZWk_Z_ohSjQJJxjE9ha" compressed="false" version="20.3.0" type="device">
  <diagram name="PV003B" id="wz0wffTLpOwTNglZcx0D">
    <mxGraphModel dx="782" dy="531" grid="1" gridSize="2" guides="1" tooltips="1" connect="1" arrows="1" fold="1" page="1" pageScale="1" pageWidth="1169" pageHeight="827" math="0" shadow="0">
      <root>
        <mxCell id="yHUiXCIcpEU2pmLKan_n-0" />
        <object label="Symbol" Height="6" Width="8" UoM="mm" id="yHUiXCIcpEU2pmLKan_n-131">
          <mxCell style="locked=1;" parent="yHUiXCIcpEU2pmLKan_n-0" />
        </object>
        <mxCell id="VehGEhK3i6AJcqMpad5X-1" value="" style="triangle;whiteSpace=wrap;html=1;fillColor=none;rotation=90;" parent="yHUiXCIcpEU2pmLKan_n-131" vertex="1">
          <mxGeometry x="368" y="176" width="64" height="64" as="geometry" />
        </mxCell>
        <mxCell id="VehGEhK3i6AJcqMpad5X-2" value="" style="triangle;whiteSpace=wrap;html=1;fillColor=none;rotation=-180;" parent="yHUiXCIcpEU2pmLKan_n-131" vertex="1">
          <mxGeometry x="400" y="208" width="64" height="64" as="geometry" />
        </mxCell>
        <mxCell id="VehGEhK3i6AJcqMpad5X-0" value="" style="triangle;whiteSpace=wrap;html=1;fillColor=none;" parent="yHUiXCIcpEU2pmLKan_n-131" vertex="1">
          <mxGeometry x="336" y="208" width="64" height="64" as="geometry" />
        </mxCell>
        <mxCell id="yHUiXCIcpEU2pmLKan_n-128" value="Option1" style="" parent="yHUiXCIcpEU2pmLKan_n-0" visible="0" />
        <mxCell id="VehGEhK3i6AJcqMpad5X-5" value="" style="triangle;whiteSpace=wrap;html=1;fillColor=#000000;rotation=90;" parent="yHUiXCIcpEU2pmLKan_n-128" vertex="1">
          <mxGeometry x="368" y="176" width="64" height="64" as="geometry" />
        </mxCell>
        <mxCell id="VehGEhK3i6AJcqMpad5X-4" value="" style="triangle;whiteSpace=wrap;html=1;fillColor=none;rotation=-180;" parent="yHUiXCIcpEU2pmLKan_n-128" vertex="1">
          <mxGeometry x="400" y="208" width="64" height="64" as="geometry" />
        </mxCell>
        <mxCell id="VehGEhK3i6AJcqMpad5X-6" value="" style="triangle;whiteSpace=wrap;html=1;fillColor=none;" parent="yHUiXCIcpEU2pmLKan_n-128" vertex="1">
          <mxGeometry x="336" y="208" width="64" height="64" as="geometry" />
        </mxCell>
        <object label="Option2" id="VehGEhK3i6AJcqMpad5X-7">
          <mxCell style="" parent="yHUiXCIcpEU2pmLKan_n-0" visible="0" />
        </object>
        <mxCell id="VehGEhK3i6AJcqMpad5X-8" value="" style="triangle;whiteSpace=wrap;html=1;fillColor=none;rotation=90;" parent="VehGEhK3i6AJcqMpad5X-7" vertex="1">
          <mxGeometry x="368" y="176" width="64" height="64" as="geometry" />
        </mxCell>
        <mxCell id="VehGEhK3i6AJcqMpad5X-9" value="" style="triangle;whiteSpace=wrap;html=1;fillColor=#000000;rotation=-180;" parent="VehGEhK3i6AJcqMpad5X-7" vertex="1">
          <mxGeometry x="400" y="208" width="64" height="64" as="geometry" />
        </mxCell>
        <mxCell id="VehGEhK3i6AJcqMpad5X-10" value="" style="triangle;whiteSpace=wrap;html=1;fillColor=none;" parent="VehGEhK3i6AJcqMpad5X-7" vertex="1">
          <mxGeometry x="336" y="208" width="64" height="64" as="geometry" />
        </mxCell>
        <mxCell id="yHUiXCIcpEU2pmLKan_n-129" value="Label" style="" parent="yHUiXCIcpEU2pmLKan_n-0" />
        <object label="%LabelLines%&amp;nbsp; &amp;nbsp; &amp;nbsp; &amp;nbsp; &amp;nbsp; &amp;nbsp;%LabelIndex%" placeholders="1" LabelLines="2" LabelIndex="A" id="OxFjoSKdfpgckHMKP-ke-3">
          <mxCell style="rounded=0;whiteSpace=wrap;html=1;fillColor=none;strokeColor=#FF0000;fontColor=#FF0000;fontSize=10;align=left;noLabel=0;" parent="yHUiXCIcpEU2pmLKan_n-129" vertex="1">
            <mxGeometry x="360" y="288" width="80" height="16" as="geometry" />
          </mxCell>
        </object>
        <mxCell id="yHUiXCIcpEU2pmLKan_n-124" value="Connection" style="" parent="yHUiXCIcpEU2pmLKan_n-0" />
        <object label="Connection" PipingConnector="Y" LabelConnector="N" SignalConnector="N" Direction="180" AuxiliaryConnector="N" id="rcUO89sZQDFuOGigJMmF-2">
          <mxCell style="vsdxID=1407;fillColor=none;gradientColor=none;shape=stencil(rVFbDsIgEDwNnyQU4glqvcfGblsilmZBS28vZGMsxg9j/JvZmX1kR5g2TLCg0CpE8hdcbR8nYY5CaztPSDZmJEwnTDt4wpH8be6ZL1CcBV39vUxI3KdKh1YbswPTEzuBzlmiVGmKau9zUKM+jlJJQrJBko8QrZ+rrQ5oRJnXyMHBWElhRVx25ebnw/5zVvPFWRm83jxY5zilvf4eSy5xpKZ7AA==);strokeColor=#00FF00;strokeWidth=1;points=[[0.5,0.5,0,0,0]];labelBackgroundColor=none;rounded=0;html=1;whiteSpace=wrap;aspect=fixed;noLabel=1;snapToPoint=1;container=0;fontSize=16;" parent="yHUiXCIcpEU2pmLKan_n-124" vertex="1">
            <mxGeometry x="330" y="234" width="12" height="12" as="geometry" />
          </mxCell>
        </object>
        <object label="Connection" PipingConnector="Y" LabelConnector="N" SignalConnector="N" Direction="0" AuxiliaryConnector="N" id="rcUO89sZQDFuOGigJMmF-3">
          <mxCell style="vsdxID=1407;fillColor=none;gradientColor=none;shape=stencil(rVFbDsIgEDwNnyQU4glqvcfGblsilmZBS28vZGMsxg9j/JvZmX1kR5g2TLCg0CpE8hdcbR8nYY5CaztPSDZmJEwnTDt4wpH8be6ZL1CcBV39vUxI3KdKh1YbswPTEzuBzlmiVGmKau9zUKM+jlJJQrJBko8QrZ+rrQ5oRJnXyMHBWElhRVx25ebnw/5zVvPFWRm83jxY5zilvf4eSy5xpKZ7AA==);strokeColor=#00FF00;strokeWidth=1;points=[[0.5,0.5,0,0,0]];labelBackgroundColor=none;rounded=0;html=1;whiteSpace=wrap;aspect=fixed;noLabel=1;snapToPoint=1;container=0;fontSize=16;" parent="yHUiXCIcpEU2pmLKan_n-124" vertex="1">
            <mxGeometry x="458" y="234" width="12" height="12" as="geometry" />
          </mxCell>
        </object>
        <object label="Connection" PipingConnector="Y" LabelConnector="N" SignalConnector="N" Direction="270" AuxiliaryConnector="N" id="VehGEhK3i6AJcqMpad5X-3">
          <mxCell style="vsdxID=1407;fillColor=none;gradientColor=none;shape=stencil(rVFbDsIgEDwNnyQU4glqvcfGblsilmZBS28vZGMsxg9j/JvZmX1kR5g2TLCg0CpE8hdcbR8nYY5CaztPSDZmJEwnTDt4wpH8be6ZL1CcBV39vUxI3KdKh1YbswPTEzuBzlmiVGmKau9zUKM+jlJJQrJBko8QrZ+rrQ5oRJnXyMHBWElhRVx25ebnw/5zVvPFWRm83jxY5zilvf4eSy5xpKZ7AA==);strokeColor=#00FF00;strokeWidth=1;points=[[0.5,0.5,0,0,0]];labelBackgroundColor=none;rounded=0;html=1;whiteSpace=wrap;aspect=fixed;noLabel=1;snapToPoint=1;container=0;fontSize=16;" parent="yHUiXCIcpEU2pmLKan_n-124" vertex="1">
            <mxGeometry x="394" y="170" width="12" height="12" as="geometry" />
          </mxCell>
        </object>
        <mxCell id="yHUiXCIcpEU2pmLKan_n-130" value="Origo" style="" parent="yHUiXCIcpEU2pmLKan_n-0" />
        <object label="origo" id="OxFjoSKdfpgckHMKP-ke-2">
          <mxCell style="vsdxID=1407;fillColor=none;gradientColor=none;shape=stencil(rVFbDsIgEDwNnyQU4glqvcfGblsilmZBS28vZGMsxg9j/JvZmX1kR5g2TLCg0CpE8hdcbR8nYY5CaztPSDZmJEwnTDt4wpH8be6ZL1CcBV39vUxI3KdKh1YbswPTEzuBzlmiVGmKau9zUKM+jlJJQrJBko8QrZ+rrQ5oRJnXyMHBWElhRVx25ebnw/5zVvPFWRm83jxY5zilvf4eSy5xpKZ7AA==);strokeColor=#ff0000;strokeWidth=1;points=[[0.5,0.5,0,0,0]];labelBackgroundColor=none;rounded=0;html=1;whiteSpace=wrap;aspect=fixed;noLabel=1;snapToPoint=1;" parent="yHUiXCIcpEU2pmLKan_n-130" vertex="1">
            <mxGeometry x="396" y="236" width="7.874" height="7.87" as="geometry" />
          </mxCell>
        </object>
      </root>
    </mxGraphModel>
  </diagram>
</mxfile>
